<svg width="21" height="18" viewBox="0 0 21 18" fill="none" xmlns="http://www.w3.org/2000/svg">
<g clip-path="url(#clip0_184_495)">
<path d="M0.483865 5.02246C0.25 5.92843 0.25 7.10553 0.25 9.21179C0.25 11.5991 0.250002 12.7927 0.590513 13.7508C1.18478 15.4229 2.5004 16.7386 4.1725 17.3328C5.13062 17.6733 6.32426 17.6733 8.71154 17.6733H11.7885C14.1757 17.6733 15.3694 17.6733 16.3275 17.3328C17.9996 16.7386 19.3152 15.4229 19.9095 13.7508C20.25 12.7927 20.25 11.5991 20.25 9.21179C20.25 7.10555 20.25 5.92845 20.0161 5.02249L16.1516 7.87021C15.0092 8.71198 14.1089 9.37538 13.329 9.84545C12.5298 10.3271 11.8033 10.6401 10.9974 10.743C10.5015 10.8063 9.99943 10.8064 9.50345 10.743C8.69758 10.6401 7.97104 10.3272 7.17188 9.84558C6.39188 9.37555 5.49161 8.71221 4.3492 7.87047L0.483865 5.02246Z" fill="#FFD166" fill-opacity="0.18"/>
<path d="M1.11328 3.57511L5.23082 6.60894C6.41078 7.47835 7.25411 8.09876 7.96578 8.52763C8.6653 8.94916 9.18334 9.15098 9.69813 9.2167C10.0647 9.2635 10.4358 9.2635 10.8024 9.21668C11.3172 9.15093 11.8352 8.94909 12.5347 8.52753C13.2464 8.09863 14.0896 7.47818 15.2696 6.60872L19.3864 3.57512C18.6881 2.43098 17.6131 1.54748 16.3273 1.09051C15.3692 0.75 14.1756 0.75 11.7883 0.75L8.71139 0.750002C6.3241 0.750001 5.13046 0.750001 4.17235 1.09051C2.88657 1.54748 1.81158 2.43098 1.11328 3.57511Z" fill="#FFD166"/>
</g>
<defs>
<clipPath id="clip0_184_495">
<rect width="21" height="18" fill="white"/>
</clipPath>
</defs>
</svg>
