<svg width="26" height="23" viewBox="0 0 26 23" fill="none" xmlns="http://www.w3.org/2000/svg">
<g clip-path="url(#clip0_198_4288)">
<path fill-rule="evenodd" clip-rule="evenodd" d="M13.1885 0.0716137C13.0631 0.0607642 12.9369 0.0607642 12.8115 0.0716137C12.4256 0.104993 12.0746 0.267647 11.7479 0.419028L11.6672 0.456372L1.35799 5.20187C1.02851 5.35353 0.816075 5.68165 0.812545 6.04435C0.809014 6.40704 1.01502 6.73924 1.34149 6.89729L11.6111 11.8691L11.6952 11.91C12.0346 12.0754 12.3994 12.2532 12.803 12.2897C12.9341 12.3016 13.0659 12.3016 13.197 12.2897C13.6006 12.2532 13.9654 12.0754 14.3048 11.91L14.389 11.8691L23.3125 7.54893V18.1874C23.3125 18.4451 23.312 18.5903 23.3042 18.6993C23.2995 18.7663 23.2933 18.7935 23.2913 18.8007C23.2843 18.8187 23.2756 18.836 23.2654 18.8524C23.2664 18.8508 23.2669 18.8502 23.2665 18.8509C23.2663 18.8512 23.266 18.8517 23.2654 18.8524C23.2608 18.8584 23.2428 18.8797 23.192 18.9237C23.1095 18.9952 22.9937 19.0828 22.7875 19.2374L20.875 20.6718C20.4608 20.9824 20.3768 21.5701 20.6875 21.9843C20.9982 22.3985 21.5858 22.4824 22 22.1718L23.9125 20.7374L23.9899 20.6796C24.3019 20.4469 24.6373 20.1968 24.8576 19.8426C24.929 19.7277 24.9897 19.6064 25.0387 19.4803C25.1899 19.0916 25.1887 18.6733 25.1877 18.284L25.1875 18.1874V6.05347C25.1875 5.68746 24.9745 5.35491 24.642 5.20187L14.3328 0.456372L14.2521 0.419028C13.9254 0.267647 13.5744 0.104993 13.1885 0.0716137Z" fill="#391D47"/>
<path d="M21.635 16.0637V10.313L14.4783 13.7996C13.8343 14.1133 13.5122 14.2702 13.1699 14.3013C13.0569 14.3116 12.9433 14.3116 12.8303 14.3013C12.488 14.2702 12.166 14.1133 11.522 13.7996L4.36523 10.313V16.0637C4.36523 16.4883 4.36523 16.7007 4.44732 16.8837C4.4743 16.9439 4.50755 17.001 4.54652 17.0542C4.66509 17.216 4.84968 17.3209 5.21888 17.5307L12.1663 21.4795C12.5273 21.6847 12.7078 21.7873 12.9034 21.8076C12.9677 21.8142 13.0325 21.8142 13.0968 21.8076C13.2924 21.7873 13.4729 21.6847 13.834 21.4795L20.7813 17.5307C21.1505 17.3209 21.3351 17.216 21.4537 17.0542C21.4927 17.001 21.5259 16.9439 21.5529 16.8837C21.635 16.7007 21.635 16.4883 21.635 16.0637Z" fill="#391D47"/>
</g>
<defs>
<clipPath id="clip0_198_4288">
<rect width="26" height="23" fill="white"/>
</clipPath>
</defs>
</svg>
