<svg width="18" height="21" viewBox="0 0 18 21" fill="none" xmlns="http://www.w3.org/2000/svg">
<path d="M13.0442 17.0543C12.1219 17.9151 11.231 18.6262 10.556 19.1317C10.5672 19.1235 10.4264 19.2283 10.4827 19.1864C10.5069 19.1684 10.5313 19.1502 10.556 19.1317C9.66788 19.7787 8.2051 19.7787 7.31701 19.1316C7.33355 19.144 7.34997 19.1562 7.36626 19.1684C7.395 19.1898 7.42006 19.2084 7.39037 19.1863C7.38236 19.1804 7.37432 19.1744 7.36626 19.1684C7.34045 19.1492 7.31175 19.1278 7.31701 19.1316C7.31699 19.1316 7.31704 19.1316 7.31701 19.1316C6.64208 18.6261 5.75121 17.9151 4.82894 17.0543C2.94892 15.2996 0.807939 12.8042 0.26252 10.0775C-0.840746 4.56207 3.62712 0.25 8.93654 0.25C14.246 0.25 18.7135 4.5621 17.6106 10.0775C17.0653 12.8042 14.9243 15.2996 13.0442 17.0543Z" fill="#FFD166" fill-opacity="0.18"/>
<path d="M12.4137 9.08721C12.4137 11.0066 10.8577 12.5626 8.93828 12.5626C7.01888 12.5626 5.46289 11.0066 5.46289 9.08721C5.46289 7.1678 7.01888 5.61182 8.93828 5.61182C10.8577 5.61182 12.4137 7.1678 12.4137 9.08721Z" fill="#FFD166"/>
</svg>
