<svg width="18" height="14" viewBox="0 0 18 14" fill="none" xmlns="http://www.w3.org/2000/svg">
<path d="M1.5 7C1.5 5.05858 1.5 4.08786 1.81717 3.32215C2.24006 2.3012 3.0512 1.49006 4.07215 1.06717C4.83786 0.75 5.80858 0.75 7.75 0.75H10.25C12.1914 0.75 13.1621 0.75 13.9278 1.06717C14.9488 1.49006 15.7599 2.3012 16.1828 3.32215C16.5 4.08786 16.5 5.05858 16.5 7V7C16.5 8.94142 16.5 9.91213 16.1828 10.6778C15.7599 11.6988 14.9488 12.5099 13.9278 12.9328C13.1621 13.25 12.1914 13.25 10.25 13.25H7.75C5.80858 13.25 4.83786 13.25 4.07215 12.9328C3.0512 12.5099 2.24006 11.6988 1.81717 10.6778C1.5 9.91213 1.5 8.94142 1.5 7V7Z" stroke="white" stroke-width="1.25" stroke-linejoin="round"/>
<path d="M1.5 3.66663L4.39571 5.91874C6.35373 7.44158 7.33274 8.20299 8.45106 8.35169C8.81563 8.40016 9.18502 8.40015 9.54959 8.35166C10.6679 8.20292 11.6469 7.44146 13.6048 5.91854L16.5 3.66663" stroke="white" stroke-width="1.25" stroke-linejoin="round"/>
</svg>
