<svg width="21" height="21" viewBox="0 0 21 21" fill="none" xmlns="http://www.w3.org/2000/svg">
<g clip-path="url(#clip0_184_449)">
<path d="M5.16602 15.3844C8.27767 18.4948 12.1219 20.2463 15.4772 20.2778C16.7265 20.3954 18.02 19.9758 18.9784 19.0178C20.6849 17.312 20.6849 14.5461 18.9784 12.8403C17.2721 11.1346 14.5056 11.1346 12.7993 12.8403C12.3962 13.2433 12.088 13.7062 11.8751 14.2004C10.8117 13.5401 9.77167 12.7208 8.8007 11.7503L5.16602 15.3844Z" fill="#FFD166"/>
<path d="M7.70897 1.57614C6.00262 -0.129546 3.23621 -0.129546 1.52986 1.57614C0.57149 2.53413 0.151662 3.82738 0.269314 5.07645C0.300787 8.43071 2.05313 12.2736 5.16475 15.384L8.79943 11.7499C7.82865 10.7795 7.0092 9.74002 6.34878 8.67729C6.843 8.46458 7.30592 8.15657 7.70897 7.75368C9.41548 6.04783 9.41548 3.28198 7.70897 1.57614Z" fill="#FFD166" fill-opacity="0.18"/>
</g>
<defs>
<clipPath id="clip0_184_449">
<rect width="21" height="21" fill="white"/>
</clipPath>
</defs>
</svg>
