<svg width="19" height="22" viewBox="0 0 19 22" fill="none" xmlns="http://www.w3.org/2000/svg">
<g clip-path="url(#clip0_184_346)">
<path d="M10.8182 4.09224C6.86333 1.45534 4.88588 0.136894 3.26935 0.593845C2.76244 0.737134 2.29261 0.988567 1.89218 1.33083C0.615234 2.42234 0.615234 4.79902 0.615234 9.55238V12.4488C0.615234 17.2016 0.615234 19.5781 1.89207 20.6696C2.29246 21.0118 2.76226 21.2633 3.26913 21.4066C4.88555 21.8636 6.86292 20.5455 10.8177 17.9093L12.99 16.4612C16.2556 14.2844 17.8884 13.196 18.1837 11.7132C18.2774 11.2431 18.2774 10.7592 18.1838 10.2892C17.8886 8.80634 16.2559 7.71777 12.9906 5.54061L10.8182 4.09224Z" fill="#181618"/>
</g>
<defs>
<clipPath id="clip0_184_346">
<rect width="18" height="21" fill="white" transform="translate(0.5 0.5)"/>
</clipPath>
</defs>
</svg>
