<svg width="18" height="18" viewBox="0 0 18 18" fill="none" xmlns="http://www.w3.org/2000/svg">
<path d="M2.35427 2.393L1.91242 1.95097L1.91242 1.95097L2.35427 2.393ZM6.47906 2.393L6.92092 1.95097L6.47906 2.393ZM6.47906 6.51618L6.03721 6.07415L6.47906 6.51618ZM11.4877 11.5229L11.0459 11.0809L11.4877 11.5229ZM15.6125 15.6461L15.1707 15.2041L15.1707 15.2041L15.6125 15.6461ZM5.30055 12.7009L4.85869 13.143L5.30055 12.7009ZM1.51544 4.75513L2.14043 4.75158C2.14032 4.73136 2.13922 4.71116 2.13715 4.69105L1.51544 4.75513ZM13.2495 16.4846L13.3135 15.8629C13.2934 15.8608 13.2732 15.8597 13.253 15.8596L13.2495 16.4846ZM4.87966 7.33336L4.781 6.7162C4.58107 6.74816 4.40901 6.87499 4.31932 7.05652C4.22964 7.23804 4.23344 7.45176 4.32953 7.62998L4.87966 7.33336ZM10.6702 13.1217L10.3738 13.6719C10.552 13.7679 10.7657 13.7717 10.9471 13.682C11.1286 13.5923 11.2554 13.4203 11.2874 13.2204L10.6702 13.1217ZM2.79613 2.83503C3.6911 1.94041 5.14223 1.94041 6.03721 2.83503L6.92092 1.95097C5.53783 0.568426 3.2955 0.568426 1.91242 1.95097L2.79613 2.83503ZM6.03721 2.83503C6.93204 3.72952 6.93204 5.17966 6.03721 6.07415L6.92092 6.95821C8.30414 5.57553 8.30414 3.33365 6.92092 1.95097L6.03721 2.83503ZM11.9296 11.9649C12.8246 11.0703 14.2757 11.0703 15.1707 11.9649L16.0544 11.0809C14.6713 9.69832 12.429 9.69832 11.0459 11.0809L11.9296 11.9649ZM15.1707 11.9649C16.0655 12.8594 16.0655 14.3096 15.1707 15.2041L16.0544 16.0881C17.4376 14.7054 17.4376 12.4636 16.0544 11.0809L15.1707 11.9649ZM5.74241 12.2589C3.38754 9.90497 2.15363 7.07623 2.14043 4.75158L0.890454 4.75868C0.905924 7.48443 2.32743 10.6127 4.85869 13.143L5.74241 12.2589ZM2.13715 4.69105C2.06875 4.02738 2.2887 3.34226 2.79613 2.83503L1.91242 1.95097C1.12766 2.73542 0.7884 3.79719 0.893737 4.81921L2.13715 4.69105ZM15.1707 15.2041C14.6632 15.7113 13.9777 15.9313 13.3135 15.8629L13.1854 17.1063C14.2076 17.2116 15.2696 16.8725 16.0544 16.0881L15.1707 15.2041ZM13.253 15.8596C10.9272 15.8464 8.09726 14.6129 5.74241 12.2589L4.85869 13.143C7.38997 15.6733 10.5194 17.0941 13.2459 17.1096L13.253 15.8596ZM6.03721 6.07415C5.68203 6.42919 5.24094 6.64268 4.781 6.7162L4.97832 7.95053C5.68948 7.83684 6.37337 7.50554 6.92092 6.95821L6.03721 6.07415ZM7.8048 10.1973C6.81484 9.20776 6.01903 8.12961 5.42979 7.03675L4.32953 7.62998C4.97819 8.83305 5.84785 10.0086 6.92109 11.0814L7.8048 10.1973ZM11.2874 13.2204C11.3609 12.7608 11.5744 12.32 11.9296 11.9649L11.0459 11.0809C10.4983 11.6282 10.1668 12.3119 10.0531 13.0229L11.2874 13.2204ZM10.9667 12.5714C9.87335 11.9824 8.79476 11.1869 7.8048 10.1973L6.92109 11.0814C7.99433 12.1542 9.17029 13.0235 10.3738 13.6719L10.9667 12.5714Z" fill="white"/>
</svg>
