<svg width="22" height="23" viewBox="0 0 22 23" fill="none" xmlns="http://www.w3.org/2000/svg">
<g clip-path="url(#clip0_198_4293)">
<path d="M2.29954 15.3836C2.09863 15.5257 1.92036 15.6696 1.77988 15.8101C0.64549 16.9445 0.25291 18.4316 0.123115 19.5432C0.0569815 20.1096 0.0553113 20.6093 0.0700342 20.9687C0.077426 21.1491 0.209282 22.1724 0.219433 22.2771C0.324137 22.2873 1.34744 22.4191 1.52786 22.4265C1.88722 22.4413 2.387 22.4396 2.95339 22.3735C4.06499 22.2437 5.55206 21.8511 6.68645 20.7167C6.82693 20.5762 6.9709 20.3979 7.11297 20.197C7.20651 20.0647 7.25329 19.9986 7.38815 19.6694C7.69286 18.9255 7.57233 17.5101 7.14623 16.8284C6.95764 16.5267 6.79301 16.3621 6.46375 16.0328C6.13449 15.7036 5.96985 15.5389 5.66815 15.3503C4.98649 14.9242 3.57109 14.8037 2.82721 15.1084C2.49796 15.2433 2.43182 15.2901 2.29954 15.3836Z" fill="#391D47"/>
<path fill-rule="evenodd" clip-rule="evenodd" d="M17.061 0.875632C18.1886 0.66839 19.1745 0.592974 19.8811 0.569329C20.3458 0.553779 20.5781 0.546004 20.819 0.616613C21.2794 0.75156 21.744 1.21614 21.8789 1.67651C21.9495 1.91739 21.9418 2.14974 21.9262 2.61441C21.9026 3.32099 21.8272 4.3069 21.6199 5.43456C21.2228 7.59524 20.3287 10.3462 18.3182 12.6302L18.0548 17.6917C17.938 19.9354 16.0847 21.6948 13.838 21.6948C11.576 21.6948 9.71573 19.9122 9.61927 17.6523L9.56951 16.4865L6.00903 12.926L4.84324 12.8763C2.5833 12.7798 0.800781 10.9196 0.800781 8.65759C0.800781 6.41084 2.56013 4.55755 4.80384 4.44077L9.8653 4.17733C12.1493 2.16688 14.9003 1.27272 17.061 0.875632ZM14.7485 10.25C14.7485 11.6307 13.6292 12.75 12.2485 12.75C10.8678 12.75 9.74854 11.6307 9.74854 10.25C9.74854 8.86925 10.8678 7.74996 12.2485 7.74996C13.6292 7.74996 14.7485 8.86925 14.7485 10.25Z" fill="#391D47"/>
</g>
<defs>
<clipPath id="clip0_198_4293">
<rect width="22" height="23" fill="white"/>
</clipPath>
</defs>
</svg>
