<svg width="13" height="16" viewBox="0 0 13 16" fill="none" xmlns="http://www.w3.org/2000/svg">
<g clip-path="url(#clip0_279_307)">
<path d="M6.99634 3.26329C4.28441 1.45514 2.92844 0.551055 1.81996 0.864392C1.47237 0.962647 1.1502 1.13506 0.875623 1.36976C0 2.11822 0 3.74794 0 7.00739V8.99351C0 12.2526 0 13.8821 0.875546 14.6306C1.1501 14.8653 1.47225 15.0377 1.81982 15.136C2.92821 15.4493 4.28413 14.5455 6.99596 12.7378L8.48555 11.7449C10.7248 10.2522 11.8445 9.50588 12.047 8.4891C12.1112 8.16677 12.1112 7.83496 12.047 7.51263C11.8446 6.49582 10.725 5.74937 8.48593 4.25646L6.99634 3.26329Z" fill="#FFF3F3"/>
</g>
<defs>
<clipPath id="clip0_279_307">
<rect width="13" height="16" fill="white"/>
</clipPath>
</defs>
</svg>
