<svg width="231" height="50" viewBox="0 0 231 50" fill="none" xmlns="http://www.w3.org/2000/svg">
<path fill-rule="evenodd" clip-rule="evenodd" d="M26.1265 16.2496L37.4055 19.9133C40.0888 20.7847 40.2324 24.5275 37.6234 25.6012L26.8423 30.0412L28.1392 42.0881C28.4505 44.9772 24.9122 46.6076 22.9181 44.4939C19.0842 40.4297 18.8534 34.1459 22.3935 29.8238C25.1261 26.4874 28.4989 24.2043 28.4989 24.2043C27.3469 23.974 25.5304 24.8007 23.5357 25.7085C19.9619 27.3351 15.8158 29.222 13.8937 25.7573C11.3501 21.1724 7.40455 19.9337 7.40455 19.9337C9.40088 23.167 10.2634 26.2962 10.5453 28.9897C10.9401 32.7645 8.42228 36.2294 4.71996 37.0639C2.26835 37.6166 0.246678 35.1174 1.29953 32.8352L5.26062 24.2469L0.431627 16.1149C-0.851536 13.9536 0.900252 11.2588 3.39633 11.5549L12.7884 12.6682L19.9676 5.44412C21.7639 3.63675 24.8535 4.71628 25.1332 7.24926L26.1265 16.2496ZM20.6359 18.5127C21.7787 19.5142 21.8036 21.3549 20.6914 22.624C19.5792 23.8931 17.7511 24.1101 16.6083 23.1086C15.4655 22.1071 15.4407 20.2664 16.5529 18.9973C17.6651 17.7281 19.4931 17.5112 20.6359 18.5127Z" fill="#FFD166"/>
<path d="M54.5923 36.4364C51.9741 36.4364 49.8529 35.4909 48.2287 33.6C46.6045 31.7091 45.7923 29.0545 45.7923 25.6364C45.7923 22.897 46.3135 20.3636 47.356 18.0364C48.4226 15.6848 49.9499 13.7939 51.9378 12.3636C53.9499 10.9091 56.1075 10.1818 58.4105 10.1818C60.7378 10.1818 62.6529 10.6424 64.156 11.5636C65.6832 12.4848 66.4469 13.697 66.4469 15.2C66.4469 16.6788 66.0348 17.8545 65.2105 18.7273C64.2408 18.7273 63.1257 18.5333 61.8651 18.1455C60.6045 17.7576 59.659 17.2848 59.0287 16.7273L59.7196 13.2C59.2105 12.9576 58.7135 12.8364 58.2287 12.8364C56.8226 12.8364 55.5863 14.0606 54.5196 16.5091C53.4529 18.9333 52.9196 21.7818 52.9196 25.0545C52.9196 29.9515 54.3014 32.4 57.0651 32.4C58.7135 32.4 60.556 31.503 62.5923 29.7091L64.3014 31.4182C64.1075 31.7333 63.6105 32.2545 62.8105 32.9818C62.0105 33.6848 61.2469 34.2545 60.5196 34.6909C59.8166 35.1273 58.9196 35.5273 57.8287 35.8909C56.762 36.2545 55.6832 36.4364 54.5923 36.4364ZM77.0332 11.2364C77.0332 12.9333 76.4151 16.4242 75.1787 21.7091C77.2635 20.5212 78.8999 19.9273 80.0878 19.9273C81.2999 19.9273 82.1969 20.2545 82.7787 20.9091C83.3605 21.5394 83.6514 22.3394 83.6514 23.3091C83.6514 24.2545 83.3848 25.7576 82.8514 27.8182C82.3181 29.8545 82.0514 31.1879 82.0514 31.8182C82.0514 32.4485 82.1484 32.7636 82.3423 32.7636L84.2332 32.2545L84.8878 34.0727C84.1363 34.6303 83.0938 35.1636 81.7605 35.6727C80.4514 36.1818 79.2878 36.4364 78.2696 36.4364C76.306 36.4364 75.3241 35.3212 75.3241 33.0909C75.3241 32.0727 75.5787 30.5697 76.0878 28.5818C76.5969 26.5939 76.8514 25.3455 76.8514 24.8364C76.8514 24.303 76.6696 24.0364 76.306 24.0364C75.7969 24.0364 75.1787 24.2788 74.4514 24.7636C73.3605 29.3939 72.8151 32.6182 72.8151 34.4364L72.8514 35.3091C70.3787 35.9636 68.1605 36.2909 66.1969 36.2909C66.0514 36.2182 65.9787 35.8303 65.9787 35.1273C65.9787 33.6242 66.6938 29.903 68.1241 23.9636C69.5787 18.0242 70.306 14.0242 70.306 11.9636C70.306 11.3333 70.2575 10.7758 70.1605 10.2909C72.512 9.63636 74.7181 9.30909 76.7787 9.30909C76.9484 9.72121 77.0332 10.3636 77.0332 11.2364ZM103.686 21.2727C103.177 22.8485 102.74 24.7273 102.377 26.9091C102.013 29.0667 101.831 30.5818 101.831 31.4545C101.831 32.303 101.965 32.7273 102.231 32.7273L104.049 32.2182L104.704 34.0364C103.928 34.6424 102.934 35.2 101.722 35.7091C100.534 36.1939 99.4797 36.4364 98.5585 36.4364C96.9828 36.4364 95.9888 35.7576 95.5767 34.4C93.6616 35.7576 91.9646 36.4364 90.4858 36.4364C89.0313 36.4364 87.904 35.903 87.104 34.8364C86.304 33.7697 85.904 32.2424 85.904 30.2545C85.904 27.5152 86.607 25.103 88.0131 23.0182C89.4191 20.9333 91.2737 19.8909 93.5767 19.8909C94.8373 19.8909 96.1222 20.2424 97.4313 20.9455C97.6252 20.5091 97.7828 20.1939 97.904 20C99.6494 20 101.577 20.4242 103.686 21.2727ZM92.7403 29.8182C92.7403 31.0303 92.8252 31.7939 92.9949 32.1091C93.1646 32.4242 93.4797 32.5818 93.9403 32.5818C94.4009 32.5818 94.8494 32.4 95.2858 32.0364C95.3828 29.2242 95.8434 26.2788 96.6676 23.2C96.304 22.9818 95.8797 22.8727 95.3949 22.8727C94.9343 22.8727 94.51 23.1394 94.1222 23.6727C93.7585 24.2061 93.4797 24.8727 93.2858 25.6727C92.9222 27.2 92.7403 28.5818 92.7403 29.8182ZM105.949 36.2182H105.659C105.586 35.8788 105.549 35.3576 105.549 34.6545C105.549 33.9273 105.84 32.0727 106.422 29.0909C107.028 26.0848 107.331 24.3879 107.331 24C107.331 23.5879 107.222 23.1758 107.004 22.7636C106.786 22.3273 106.568 22 106.349 21.7818L106.022 21.4545L106.095 20.9091C107.549 20.4485 109.962 20.2182 113.331 20.2182C113.646 20.8242 113.84 21.5394 113.913 22.3636C115.392 20.7152 116.701 19.8909 117.84 19.8909C119.319 19.8909 120.131 21.1394 120.277 23.6364C120.228 23.6848 120.168 23.7697 120.095 23.8909C120.022 23.9879 119.852 24.1697 119.586 24.4364C119.319 24.703 119.04 24.9455 118.749 25.1636C117.925 25.7212 117.052 26.0485 116.131 26.1455C116.107 26.1455 115.937 25.8788 115.622 25.3455C115.331 24.8121 115.077 24.5455 114.859 24.5455C114.665 24.5455 114.289 24.7636 113.731 25.2C113.659 25.6364 113.513 26.3758 113.295 27.4182C113.101 28.4606 112.943 29.3212 112.822 30C112.459 31.7939 112.277 33.297 112.277 34.5091L112.313 35.6C111.246 36.0121 109.125 36.2182 105.949 36.2182ZM128.189 22.3636C128.189 23.4303 127.886 25.0909 127.28 27.3455C126.674 29.5758 126.371 31.0303 126.371 31.7091C126.371 32.3879 126.505 32.7273 126.771 32.7273C127.038 32.7273 127.523 32.6061 128.226 32.3636L128.553 32.2182L129.208 34.0364C128.383 34.6667 127.353 35.2242 126.117 35.7091C124.905 36.1939 123.802 36.4364 122.808 36.4364C121.814 36.4364 121.026 36.1576 120.444 35.6C119.886 35.0424 119.608 34.2424 119.608 33.2C119.608 32.1333 119.899 30.5212 120.48 28.3636C121.086 26.1818 121.389 24.8 121.389 24.2182C121.389 23.3212 121.074 22.4727 120.444 21.6727L120.153 21.2727L120.262 20.6545C121.523 20.2667 123.971 20.0727 127.608 20.0727C127.996 20.5091 128.189 21.2727 128.189 22.3636ZM125.462 17.2364C124.371 17.2364 123.511 16.9455 122.88 16.3636C122.274 15.7818 121.971 15.0424 121.971 14.1455C121.971 13.2242 122.347 12.4606 123.099 11.8545C123.874 11.2242 124.808 10.9091 125.899 10.9091C126.989 10.9091 127.838 11.1636 128.444 11.6727C129.05 12.1818 129.353 12.897 129.353 13.8182C129.353 14.7394 128.977 15.5394 128.226 16.2182C127.499 16.897 126.577 17.2364 125.462 17.2364ZM142.837 23.1273L139.71 22.8727C138.74 27.2121 138.207 29.7333 138.11 30.4364C138.037 31.1394 138.001 31.7212 138.001 32.1818C138.001 32.6182 138.146 32.8364 138.437 32.8364C138.776 32.8364 139.419 32.6182 140.364 32.1818L141.237 33.9273C140.461 34.6303 139.479 35.2242 138.291 35.7091C137.104 36.1939 135.952 36.4364 134.837 36.4364C133.746 36.4364 132.873 36.1576 132.219 35.6C131.564 35.0182 131.237 34.2061 131.237 33.1636C131.237 32.1212 131.54 30.4485 132.146 28.1455C132.752 25.8424 133.152 24.1333 133.346 23.0182C132.764 23.0667 131.904 23.1515 130.764 23.2727C130.667 22.7636 130.619 22.2909 130.619 21.8545C130.619 21.3939 130.679 20.8848 130.801 20.3273H133.71C133.734 20.0121 133.746 18.9576 133.746 17.1636L133.673 15.6727C136.025 14.897 138.267 14.5091 140.401 14.5091C140.57 14.897 140.655 15.5758 140.655 16.5455C140.655 17.4909 140.498 18.7515 140.182 20.3273H143.455C143.455 21.3212 143.249 22.2545 142.837 23.1273ZM159.742 20.1455H160.033C159.912 20.7758 159.706 22.1333 159.415 24.2182C158.76 28.9697 158.057 32.5576 157.306 34.9818C155.439 41.0909 152.445 44.1455 148.324 44.1455C147.087 44.1455 146.081 43.8788 145.306 43.3455C144.554 42.8364 144.178 42.1576 144.178 41.3091C144.178 40.4848 144.372 39.7939 144.76 39.2364C145.172 38.703 145.754 38.2545 146.506 37.8909C147.791 37.2606 149.366 36.7394 151.233 36.3273C151.427 35.4061 151.548 34.8121 151.597 34.5455C149.706 35.5636 147.912 36.0727 146.215 36.0727C143.887 36.0727 142.724 34.9333 142.724 32.6545C142.724 31.8545 142.991 30.2909 143.524 27.9636C144.057 25.6121 144.324 23.9879 144.324 23.0909C144.324 22.1939 144.263 21.5273 144.142 21.0909C147.003 20.4848 149.221 20.1818 150.797 20.1818C150.991 20.4727 151.087 21.0545 151.087 21.9273C151.087 22.7758 150.809 24.4364 150.251 26.9091C149.718 29.3818 149.451 30.8364 149.451 31.2727C149.451 32.0242 149.815 32.4 150.542 32.4C150.954 32.4 151.427 32.2909 151.96 32.0727C152.154 30.8364 152.421 28.9576 152.76 26.4364C153.124 23.8909 153.378 22.1455 153.524 21.2C154.154 20.9091 155.1 20.6667 156.36 20.4727C157.645 20.2545 158.772 20.1455 159.742 20.1455ZM146.76 40.6182C146.76 41.1758 147.124 41.4545 147.851 41.4545C148.215 41.4545 148.687 41.2 149.269 40.6909C149.875 40.2061 150.36 39.4788 150.724 38.5091C148.081 38.9697 146.76 39.6727 146.76 40.6182ZM169.338 10.3636L177.92 10.5818C179.156 10.5818 180.114 10.5576 180.792 10.5091C180.865 10.9455 180.901 11.4788 180.901 12.1091C180.901 12.7394 180.732 13.2242 180.392 13.5636C180.053 13.903 179.459 14.0727 178.611 14.0727L173.047 13.6364C172.683 13.6364 172.38 13.6485 172.138 13.6727C172.089 14.5939 171.58 17.2848 170.611 21.7455C171.992 21.6242 173.374 21.5636 174.756 21.5636C176.138 21.5636 177.144 21.6727 177.774 21.8909C177.677 23.0061 177.447 23.903 177.083 24.5818L176.901 24.9455C176.223 24.7273 175.18 24.6182 173.774 24.6182C172.392 24.6182 171.12 24.6667 169.956 24.7636C169.059 29.103 168.611 32.4364 168.611 34.7636V35.2727C167.326 35.903 165.071 36.2182 161.847 36.2182H161.447C161.447 34.0848 161.98 30.497 163.047 25.4545C164.114 20.4121 164.756 16.8848 164.974 14.8727C164.974 14.3879 164.841 13.8909 164.574 13.3818C164.307 12.8485 164.041 12.4364 163.774 12.1455L163.374 11.7455L163.447 10.9091C165.241 10.5455 167.204 10.3636 169.338 10.3636ZM189.651 33.9636C188.875 34.6424 187.857 35.2242 186.596 35.7091C185.335 36.1939 184.184 36.4364 183.141 36.4364C182.123 36.4364 181.287 36.1455 180.632 35.5636C179.978 34.9576 179.651 34.097 179.651 32.9818C179.651 31.8667 180.257 28.7636 181.469 23.6727C182.705 18.5576 183.323 14.7636 183.323 12.2909C183.323 11.7576 183.251 11.0788 183.105 10.2545C185.384 9.62424 187.59 9.30909 189.723 9.30909C189.941 9.69697 190.051 10.3273 190.051 11.2C190.051 12.8485 189.432 16.4485 188.196 22C186.984 27.5273 186.378 30.7152 186.378 31.5636C186.378 32.4121 186.523 32.8364 186.814 32.8364C187.057 32.8364 187.578 32.6788 188.378 32.3636L188.778 32.1818L189.651 33.9636ZM196.373 36.4364C194.482 36.4364 192.991 35.8424 191.901 34.6545C190.81 33.4424 190.264 31.7455 190.264 29.5636C190.264 26.897 191.052 24.6424 192.628 22.8C194.204 20.9333 196.276 20 198.846 20L200.482 20.1455C201.064 19.9758 201.61 19.8909 202.119 19.8909C203.331 19.8909 204.191 20.303 204.701 21.1273C205.234 21.9515 205.537 23.1273 205.61 24.6545C206.628 24.6061 207.598 24.4485 208.519 24.1818L209.028 24.0364C209.198 24.2061 209.319 24.7152 209.391 25.5636L209.428 25.9636C208.337 26.5212 207.004 26.9576 205.428 27.2727C204.895 29.8424 203.84 32.0121 202.264 33.7818C200.688 35.5515 198.725 36.4364 196.373 36.4364ZM197.101 29.4182C197.101 31.6727 197.67 32.8 198.81 32.8C199.61 32.8 200.422 32.2909 201.246 31.2727C202.095 30.2545 202.676 29.0182 202.991 27.5636C200.519 27.5636 199.282 26.3758 199.282 24C199.282 23.5879 199.319 23.1636 199.391 22.7273C199.149 22.7273 198.967 22.7636 198.846 22.8364C198.434 23.2727 198.034 24.1576 197.646 25.4909C197.282 26.8 197.101 28.1091 197.101 29.4182ZM207.547 32.0364L207.911 24.0364C207.911 23.5273 207.838 23.0909 207.693 22.7273C207.547 22.3394 207.196 21.8182 206.638 21.1636L206.747 20.5818C208.59 20.1212 210.117 19.8909 211.329 19.8909C212.541 19.8909 213.402 20.1818 213.911 20.7636C214.444 21.3455 214.711 22.1576 214.711 23.2C214.711 24.2182 214.529 25.7212 214.166 27.7091C213.802 29.697 213.62 31.0424 213.62 31.7455C213.62 32.4242 213.814 32.7636 214.202 32.7636C214.735 32.7636 215.402 32.4485 216.202 31.8182C216.226 31.4061 216.335 30.2182 216.529 28.2545C216.723 26.2909 216.82 24.8364 216.82 23.8909C216.82 22.9212 216.747 22.0727 216.602 21.3455C217.16 21.0545 218.129 20.7879 219.511 20.5455C220.893 20.303 222.057 20.1818 223.002 20.1818C223.22 20.6182 223.329 21.3091 223.329 22.2545C223.329 23.1758 223.123 24.8 222.711 27.1273C222.299 29.4303 222.093 30.9455 222.093 31.6727C222.093 32.3758 222.287 32.7273 222.675 32.7273C223.257 32.7273 224.008 32.1576 224.929 31.0182C225.85 29.8545 226.457 28.8 226.747 27.8545L224.093 25.2364C224.19 24.2424 224.408 23.3091 224.747 22.4364C225.087 21.5394 225.402 20.897 225.693 20.5091L226.093 19.9273C229.026 19.9273 230.493 21.1152 230.493 23.4909C230.493 24.6303 230.178 25.9515 229.547 27.4545C228.941 28.9576 228.166 30.3758 227.22 31.7091C226.275 33.0182 225.147 34.1333 223.838 35.0545C222.529 35.9758 221.257 36.4364 220.02 36.4364C218.299 36.4364 217.123 35.697 216.493 34.2182C214.723 35.6727 212.905 36.4 211.038 36.4C209.923 36.4 209.063 36.0727 208.457 35.4182C207.85 34.7636 207.547 33.6364 207.547 32.0364Z" fill="white"/>
</svg>
