<svg width="31" height="31" viewBox="0 0 31 31" fill="none" xmlns="http://www.w3.org/2000/svg">
<g clip-path="url(#clip0_184_348)">
<path d="M10.2626 5.80142C12.3554 5.61545 14.0565 5.42199 15.4861 5.18872C19.8278 4.48013 21.5824 3.27451 23.5817 0.816668C23.9154 0.412823 24.5301 0.395203 24.8812 0.764043L30.2105 6.14878C30.5095 6.44785 30.56 6.92234 30.3181 7.26929C29.6478 8.23088 28.9049 9.11759 28.0988 9.91609C26.5037 11.7056 24.8441 12.9806 23.2812 13.845C22.2951 14.3903 21.1825 14.6659 20.0556 14.6659H14.8422C13.2485 14.6659 11.9028 13.6044 11.4733 12.15C11.3348 11.681 11.6528 11.1862 12.1408 11.1555C12.1597 11.1543 12.1789 11.1537 12.1983 11.1537H19.8561C20.3337 11.1537 20.74 10.7807 20.754 10.3033C20.7688 9.79855 20.3773 9.39757 19.8763 9.39757H11.0958C10.8324 9.39757 10.5866 9.5205 10.4109 9.71367C10.1862 9.94624 9.11594 11.5343 7.07582 13.2512C5.75383 14.3637 2.5792 16.422 1.37879 16.422C0.623664 16.422 0.219819 15.5264 0.72903 14.9645L8.69003 6.18396C8.83058 6.00829 9.05887 5.90293 9.28705 5.88537C9.62141 5.85744 9.94646 5.82952 10.2626 5.80142Z" fill="#181618"/>
<path d="M20.7089 25.1985C18.6161 25.3844 16.915 25.5779 15.4854 25.8112C11.1436 26.5198 9.38907 27.7254 7.38974 30.1832C7.05608 30.5871 6.44139 30.6047 6.09023 30.2358L0.760981 24.8511C0.461917 24.552 0.411458 24.0775 0.65339 23.7306C1.3237 22.769 2.06653 21.8823 2.87269 21.0838C4.46776 19.2943 6.12734 18.0193 7.69027 17.1549C8.67638 16.6096 9.78893 16.334 10.9158 16.334H16.1293C17.723 16.334 19.0688 17.3955 19.4982 18.8499C19.6367 19.3189 19.3187 19.8137 18.8308 19.8444C18.8118 19.8456 18.7926 19.8462 18.7732 19.8462H11.1154C10.6378 19.8462 10.2315 20.2192 10.2175 20.6966C10.2027 21.2013 10.5942 21.6023 11.0952 21.6023H19.8757C20.1392 21.6023 20.3849 21.4794 20.5606 21.2862C20.7854 21.0537 21.8556 19.4656 23.8957 17.7487C25.2177 16.6362 28.3923 14.5779 29.5927 14.5779C30.3479 14.5779 30.7517 15.4735 30.2425 16.0354L22.2815 24.8159C22.1409 24.9916 21.9127 25.097 21.6845 25.1145C21.3501 25.1424 21.025 25.1704 20.7089 25.1985Z" fill="#181618"/>
</g>
<defs>
<clipPath id="clip0_184_348">
<rect width="30" height="30" fill="white" transform="translate(0.5 0.5)"/>
</clipPath>
</defs>
</svg>
