<svg width="24" height="25" viewBox="0 0 24 25" fill="none" xmlns="http://www.w3.org/2000/svg">
<g clip-path="url(#clip0_198_4296)">
<path d="M19.2861 0.482086C18.9224 0.301685 18.563 0.341623 18.3201 0.404861C18.0783 0.467825 17.8435 0.581532 17.6345 0.697637C17.226 0.924519 16.704 1.28325 16.0847 1.7089L2.49569 11.0475C2.09846 11.3204 1.73502 11.5701 1.47611 11.7956C1.24026 12.0009 0.833169 12.3958 0.824386 12.9954C0.82073 13.245 0.876935 13.4918 0.988293 13.7153C1.2558 14.252 1.7937 14.4317 2.09521 14.5147C2.4262 14.6058 2.86191 14.6736 3.33812 14.7476L7.82769 15.4462L4.83699 20.7279C4.48115 21.3564 4.17933 21.8893 3.99505 22.3042C3.90045 22.5171 3.80982 22.7567 3.76967 23.0006C3.72899 23.2478 3.72422 23.6003 3.92749 23.94C4.06934 24.177 4.27148 24.3721 4.51332 24.5056C4.85987 24.6968 5.21197 24.6797 5.45761 24.6304C5.70001 24.5817 5.93627 24.4827 6.14575 24.3807C6.55383 24.182 7.07589 23.8617 7.69139 23.484L21.4379 15.0502C21.836 14.806 22.2026 14.5812 22.4671 14.3735C22.7115 14.1816 23.1268 13.8152 23.1714 13.2277C23.1901 12.9813 23.1501 12.7339 23.0547 12.5059C22.8271 11.9625 22.3175 11.7457 22.025 11.6406C21.7086 11.5269 21.2898 11.4291 20.835 11.3229L15.9935 10.1913L19.0601 4.35091C19.4095 3.68556 19.704 3.12482 19.8809 2.69232C19.9715 2.47099 20.0566 2.22447 20.0905 1.9769C20.1246 1.72826 20.1217 1.36659 19.8996 1.0268C19.7473 0.793826 19.5355 0.605773 19.2861 0.482086Z" fill="#391D47"/>
</g>
<defs>
<clipPath id="clip0_198_4296">
<rect width="24" height="25" fill="white"/>
</clipPath>
</defs>
</svg>
